<svg width="24" height="20" viewBox="0 0 24 20" fill="none" xmlns="http://www.w3.org/2000/svg">
<path fill-rule="evenodd" clip-rule="evenodd" d="M11.9998 0.5C7.80915 0.5 4.80625 2.84327 2.90277 5.0685C1.75082 6.41516 0.784974 7.9348 0.0778624 9.56182C-0.0226214 9.79303 -0.026017 10.0548 0.0686626 10.2885C0.738203 11.9407 1.67953 13.4881 2.81769 14.8577C4.70132 17.1243 7.70679 19.5 11.9998 19.5C16.2929 19.5 19.2983 17.1243 21.182 14.8577C22.3201 13.4881 23.2614 11.9407 23.931 10.2885C24.0257 10.0548 24.0222 9.79302 23.9219 9.56175C23.2116 7.92407 22.2616 6.43011 21.0969 5.0685C19.1934 2.84327 16.1905 0.5 11.9998 0.5ZM15.5 10C15.5 11.933 13.933 13.5 12 13.5C10.067 13.5 8.5 11.933 8.5 10C8.5 8.067 10.067 6.5 12 6.5C13.933 6.5 15.5 8.067 15.5 10Z" fill="#767474"/>
</svg>
