<svg width="56" height="56" viewBox="0 0 56 56" fill="none" xmlns="http://www.w3.org/2000/svg">
<path fill-rule="evenodd" clip-rule="evenodd" d="M0.5 28C0.5 12.8122 12.8122 0.5 28 0.5C43.1878 0.5 55.5 12.8122 55.5 28C55.5 43.1878 43.1878 55.5 28 55.5C12.8122 55.5 0.5 43.1878 0.5 28ZM44.0395 22.2601C45.0137 21.2817 45.0103 19.6988 44.0318 18.7246L42.2603 16.9606C41.2819 15.9864 39.6989 15.9899 38.7247 16.9683L24.2958 31.4596L15.9931 23.2724C15.01 22.3029 13.4271 22.314 12.4576 23.2971L10.7023 25.0772C9.73285 26.0604 9.74394 27.6432 10.7271 28.6127L22.5728 40.2936C23.5526 41.2597 25.1289 41.2525 26.0997 40.2774L44.0395 22.2601Z" fill="#34EB51"/>
</svg>
