<svg width="101" height="101" viewBox="0 0 101 101" fill="none" xmlns="http://www.w3.org/2000/svg">
<g clip-path="url(#clip0_1_452)">
<path d="M50.5001 101C78.3904 101 101 78.3904 101 50.5C101 22.6096 78.3904 0 50.5001 0C22.6097 0 6.10352e-05 22.6096 6.10352e-05 50.5C6.10352e-05 78.3904 22.6097 101 50.5001 101Z" fill="#B7B7B7"/>
<g opacity="0.2">
<path d="M26.0391 44.1875C24.7766 44.1875 23.6719 43.0828 23.6719 41.8203V29.1953C23.6719 27.9328 24.7766 26.8281 26.0391 26.8281H38.6641C39.9266 26.8281 41.0313 27.9328 41.0313 29.1953C41.0313 30.4578 39.9266 31.5625 38.6641 31.5625H28.4063V41.8203C28.4063 43.0828 27.3016 44.1875 26.0391 44.1875Z" fill="#231F20"/>
</g>
<g opacity="0.2">
<path d="M74.961 44.1875C73.6985 44.1875 72.5938 43.0828 72.5938 41.8203V31.5625H62.336C61.0735 31.5625 59.9688 30.4578 59.9688 29.1953C59.9688 27.9328 61.0735 26.8281 62.336 26.8281H74.961C76.2235 26.8281 77.3282 27.9328 77.3282 29.1953V41.8203C77.3282 43.0828 76.2235 44.1875 74.961 44.1875Z" fill="#231F20"/>
</g>
<g opacity="0.2">
<path d="M74.961 80.4844H62.336C61.0735 80.4844 59.9688 79.3797 59.9688 78.1172C59.9688 76.8547 61.0735 75.75 62.336 75.75H72.5938V65.4922C72.5938 64.2297 73.6985 63.125 74.961 63.125C76.2235 63.125 77.3282 64.2297 77.3282 65.4922V78.1172C77.3282 79.3797 76.2235 80.4844 74.961 80.4844Z" fill="#231F20"/>
</g>
<g opacity="0.2">
<path d="M38.6641 80.4844H26.0391C24.7766 80.4844 23.6719 79.3797 23.6719 78.1172V65.4922C23.6719 64.2297 24.7766 63.125 26.0391 63.125C27.3016 63.125 28.4063 64.2297 28.4063 65.4922V75.75H38.6641C39.9266 75.75 41.0313 76.8547 41.0313 78.1172C41.0313 79.3797 39.9266 80.4844 38.6641 80.4844Z" fill="#231F20"/>
</g>
<g opacity="0.2">
<path d="M55.2344 60.7578H45.7657C44.5032 60.7578 43.3985 59.6531 43.3985 58.3906V48.9219C43.3985 47.6594 44.5032 46.5547 45.7657 46.5547H55.2344C56.4969 46.5547 57.6016 47.6594 57.6016 48.9219V58.3906C57.6016 59.6531 56.4969 60.7578 55.2344 60.7578ZM48.1329 56.0234H52.8672V51.2891H48.1329V56.0234Z" fill="#231F20"/>
</g>
<path d="M26.0391 38.6641V26.0391H38.6641" stroke="white" stroke-width="3" stroke-miterlimit="10" stroke-linecap="round" stroke-linejoin="round"/>
<path d="M62.336 26.0391H74.961V38.6641" stroke="white" stroke-width="3" stroke-miterlimit="10" stroke-linecap="round" stroke-linejoin="round"/>
<path d="M74.961 62.3359V74.9609H62.336" stroke="white" stroke-width="3" stroke-miterlimit="10" stroke-linecap="round" stroke-linejoin="round"/>
<path d="M38.6641 74.9609H26.0391V62.3359" stroke="white" stroke-width="3" stroke-miterlimit="10" stroke-linecap="round" stroke-linejoin="round"/>
<path d="M55.2344 45.7656H45.7657V55.2344H55.2344V45.7656Z" stroke="#6B6B6B" stroke-width="3" stroke-miterlimit="10" stroke-linecap="round" stroke-linejoin="round"/>
</g>
<defs>
<clipPath id="clip0_1_452">
<rect width="101" height="101" fill="white"/>
</clipPath>
</defs>
</svg>
