<svg width="109" height="108" viewBox="0 0 109 108" fill="none" xmlns="http://www.w3.org/2000/svg">
<g clip-path="url(#clip0_1_472)">
<path d="M54.4999 8.83618C25.1728 8.83618 1.45333 31.5724 0.50194 60.5985C0.472183 61.501 0.80859 62.3578 1.44827 63.0112C2.08478 63.6621 2.97498 64.0362 3.88838 64.0362H17.3573C18.2906 64.0362 19.0457 63.2872 19.0457 62.3635H89.9571C89.9571 63.2872 90.7122 64.0362 91.6455 64.0362H105.113C106.028 64.0362 106.918 63.6621 107.555 63.0096C108.193 62.3553 108.529 61.4978 108.498 60.5969C107.548 31.5726 83.8288 8.83618 54.4999 8.83618Z" fill="#555555"/>
<path d="M54.4999 8.83618C54.491 8.83618 54.4824 8.83681 54.4735 8.83681V62.3637L81.6463 15.9997C73.6781 11.4408 64.4119 8.83618 54.4999 8.83618Z" fill="#B4B4B4"/>
<path d="M91.6457 64.0364H105.113C106.028 64.0364 106.919 63.6624 107.555 63.0098C108.193 62.3555 108.529 61.4981 108.498 60.5971C107.869 41.3826 97.2564 24.9315 81.6485 16.0007L54.5006 62.3637H89.9572C89.9574 63.2875 90.7125 64.0364 91.6457 64.0364Z" fill="#1B1B1B"/>
<path d="M81.6485 16.0007L54.5006 62.3637L101.362 35.6194C96.6435 27.4696 89.8457 20.6911 81.6485 16.0007Z" fill="#393939"/>
<path d="M54.4999 23.8909C33.087 23.8909 15.6675 41.1499 15.6675 62.3638C15.6675 74.5662 21.6031 86.1684 31.547 93.3993C31.8372 93.61 32.1867 93.7236 32.5461 93.7236L76.4485 93.7277C76.8079 93.7277 77.1574 93.6142 77.4476 93.4034C87.3931 86.1751 93.3322 74.5722 93.3322 62.364C93.3324 41.1499 75.9129 23.8909 54.4999 23.8909Z" fill="#8B8996"/>
<path d="M87.7726 29.3991C87.1758 28.8061 86.2261 28.7448 85.5533 29.2529L55.1627 52.2775C54.7752 52.5706 54.5361 53.0141 54.5032 53.4952C54.4719 53.9763 54.6498 54.4485 54.9945 54.7891L62.1453 61.8737C62.4636 62.1882 62.8922 62.3638 63.339 62.3638C63.3753 62.3638 63.4133 62.363 63.4511 62.3597C63.9359 62.3279 64.3843 62.0901 64.6794 61.7071L87.9191 31.5979C88.4338 30.9321 88.3712 29.992 87.7726 29.3991Z" fill="white"/>
<path d="M76.0272 97.491H32.9738C32.7406 97.491 32.5518 97.3039 32.5518 97.0728V84.5273C32.5518 84.2963 32.7406 84.1091 32.9738 84.1091H76.0272C76.2604 84.1091 76.4493 84.2963 76.4493 84.5273V97.0728C76.4493 97.3039 76.2604 97.491 76.0272 97.491Z" fill="white"/>
<path d="M73.072 99.1639H35.9279C33.1349 99.1639 30.8628 96.9128 30.8628 94.1457V87.4547C30.8628 84.6876 33.1349 82.4365 35.9279 82.4365H73.072C75.865 82.4365 78.1371 84.6876 78.1371 87.4547V94.1457C78.1371 96.913 75.865 99.1639 73.072 99.1639ZM35.9279 85.782C34.9963 85.782 34.2395 86.5326 34.2395 87.4547V94.1457C34.2395 95.0678 34.9963 95.8184 35.9279 95.8184H73.072C74.0035 95.8184 74.7603 95.0678 74.7603 94.1457V87.4547C74.7603 86.5326 74.0035 85.782 73.072 85.782H35.9279Z" fill="#CDCBD1"/>
<path d="M54.5006 72.4C60.0953 72.4 64.6308 67.9065 64.6308 62.3636C64.6308 56.8206 60.0953 52.3271 54.5006 52.3271C48.9058 52.3271 44.3704 56.8206 44.3704 62.3636C44.3704 67.9065 48.9058 72.4 54.5006 72.4Z" fill="#CDCBD1"/>
<path d="M54.5005 67.3819C57.2979 67.3819 59.5656 65.1351 59.5656 62.3637C59.5656 59.5922 57.2979 57.3455 54.5005 57.3455C51.7031 57.3455 49.4354 59.5922 49.4354 62.3637C49.4354 65.1351 51.7031 67.3819 54.5005 67.3819Z" fill="#B9BBC1"/>
<path d="M30.8645 23.4752C31.1513 23.4752 31.4415 23.4033 31.707 23.2515C32.5149 22.7892 32.792 21.7665 32.3253 20.9661L28.9258 15.1316C27.9303 15.6581 26.9589 16.2214 26.0022 16.8066L29.4002 22.639C29.7137 23.1754 30.2807 23.4752 30.8645 23.4752Z" fill="#CDCBD1"/>
<path d="M54.4999 17.1999C55.4331 17.1999 56.1883 16.4509 56.1883 15.5272V8.8772C55.6262 8.86026 55.0661 8.83643 54.4999 8.83643C53.9337 8.83643 53.3735 8.86047 52.8115 8.8772V15.5274C52.8115 16.4509 53.5666 17.1999 54.4999 17.1999Z" fill="#CDCBD1"/>
<path d="M13.5587 40.6183C14.1425 40.6183 14.7096 40.3184 15.0228 39.7819C15.4894 38.9815 15.2123 37.9588 14.4044 37.4965L8.51431 34.1274C7.92401 35.0748 7.3658 36.0438 6.83459 37.0303L12.7162 40.3943C12.9815 40.5466 13.2717 40.6183 13.5587 40.6183Z" fill="#CDCBD1"/>
<path d="M80.0747 15.1313L76.6745 20.9661C76.2079 21.7665 76.485 22.7891 77.2929 23.2514C77.5584 23.4034 77.8486 23.4752 78.1354 23.4752C78.7191 23.4752 79.2862 23.1753 79.5996 22.6388L82.9985 16.8062C82.0418 16.2211 81.0702 15.6576 80.0747 15.1313Z" fill="#CDCBD1"/>
<path d="M100.487 34.1274L94.597 37.4963C93.7891 37.9586 93.512 38.9813 93.9786 39.7817C94.2918 40.3182 94.8591 40.6181 95.4428 40.6181C95.7296 40.6181 96.0198 40.5461 96.2853 40.3943L102.167 37.0303C101.636 36.0438 101.077 35.075 100.487 34.1274Z" fill="#CDCBD1"/>
</g>
<defs>
<clipPath id="clip0_1_472">
<rect width="108" height="107" fill="white" transform="translate(0.5 0.5)"/>
</clipPath>
</defs>
</svg>
