<svg width="85" height="106" viewBox="0 0 85 106" fill="none" xmlns="http://www.w3.org/2000/svg">
<path d="M84.3591 36.9529L37.9421 104.23C37.5553 105.292 36.0081 106 34.8477 106C34.4609 106 34.0741 106 33.6872 105.646C32.14 104.938 30.9796 103.521 31.3664 101.751L37.9421 56.4277H3.90299C2.35576 56.4277 1.19533 55.7195 0.421718 54.6573C-0.351899 53.595 0.0349088 52.1786 0.808526 51.1164L39.4894 1.54406C40.6498 0.127712 42.197 -0.226376 43.7443 0.127712C45.2915 0.4818 46.4519 1.89815 46.4519 3.3145V31.6415H81.2647C82.8119 31.6415 83.9723 32.3497 84.746 33.412C85.1328 34.4742 85.1328 35.8906 84.3591 36.9529Z" fill="#B7B7B7"/>
</svg>
