<svg width="161" height="114" viewBox="0 0 161 114" fill="none" xmlns="http://www.w3.org/2000/svg">
<path fill-rule="evenodd" clip-rule="evenodd" d="M50.0322 20.6327C53.6897 21.2254 57.123 22.6259 60.1133 24.6664C60.1133 24.6664 61.4787 23.5925 62.9842 22.4048C65.1545 20.6966 68.2976 21.0681 70.0058 23.2385C71.0018 24.5014 72.1062 25.9028 73.0997 27.1661C74.8104 29.3361 74.4364 32.4795 72.2661 34.1877C70.7627 35.3725 69.4019 36.4433 69.4019 36.4433C70.0359 38.1198 70.4989 39.8893 70.7658 41.7351C71.0327 43.5809 71.0899 45.409 70.9569 47.1965C70.9569 47.1965 72.5652 47.8379 74.3427 48.5483C75.5757 49.0394 76.5609 50.0008 77.0831 51.2186C77.6056 52.4389 77.6253 53.8152 77.1314 55.0461C76.5364 56.5391 75.8742 58.1959 75.2768 59.6893C74.2534 62.2547 71.3444 63.5013 68.779 62.4779C66.9987 61.7654 65.385 61.1223 65.385 61.1223C63.0953 63.9263 60.1994 66.2421 56.8596 67.8466L57.3817 71.4566C57.777 74.1906 55.8828 76.7253 53.1487 77.1207C51.5553 77.3511 49.7936 77.6058 48.2002 77.8363C45.4661 78.2316 42.9314 76.3374 42.5361 73.6033C42.262 71.708 42.0141 69.9933 42.0141 69.9933C38.3566 69.4007 34.9233 68.0002 31.933 65.9596C31.933 65.9596 30.5676 67.0336 29.0621 68.2213C26.8917 69.9295 23.7487 69.558 22.0405 67.3876C21.0445 66.1246 19.9401 64.7233 18.9465 63.46C17.2359 61.29 17.6099 58.1466 19.7802 56.4384C21.2836 55.2535 22.6444 54.1828 22.6444 54.1828C22.0104 52.5062 21.5474 50.7368 21.2805 48.891C21.0136 47.0452 20.9564 45.217 21.0894 43.4296C21.0894 43.4296 19.4811 42.7882 17.7036 42.0777C16.4706 41.5866 15.4854 40.6253 14.9632 39.4075C14.4407 38.1872 14.421 36.8108 14.9149 35.58C15.5099 34.0869 16.1721 32.4301 16.7695 30.9368C17.7929 28.3714 20.7019 27.1247 23.2673 28.1481C25.0476 28.8607 26.6612 29.5038 26.6612 29.5038C28.951 26.6997 31.8469 24.384 35.1866 22.7795L34.6646 19.1695C34.2692 16.4354 36.1635 13.9008 38.8975 13.5054C40.491 13.275 42.2527 13.0202 43.8461 12.7898C46.5801 12.3944 49.1148 14.2887 49.5102 17.0227C49.7843 18.918 50.0322 20.6327 50.0322 20.6327Z" fill="#2FC8F8"/>
<path fill-rule="evenodd" clip-rule="evenodd" d="M52.2532 18.5231L51.9845 16.665C51.3916 12.5651 47.5882 9.72268 43.4883 10.3155L38.5398 11.0311C34.4399 11.624 31.5975 15.4275 32.1904 19.5273L32.4591 21.3855C30.0223 22.771 27.8311 24.51 25.9451 26.5256L24.1946 25.8265C20.3474 24.2888 15.9832 26.1627 14.4479 30.0095L12.5933 34.6527C11.8551 36.4999 11.8809 38.5649 12.6654 40.3915C13.4502 42.2205 14.9291 43.6611 16.7763 44.3993L18.5216 45.0968C18.5123 46.4647 18.6045 47.8533 18.8062 49.2488C19.008 50.6443 19.313 52.0021 19.7095 53.3113L18.2333 54.4746C14.9789 57.0367 14.4182 61.753 16.9828 65.007L20.0767 68.9346C22.6388 72.1889 27.3551 72.7497 30.6091 70.1851L32.0899 69.0187C34.4696 70.4175 37.064 71.467 39.7931 72.1029L40.0618 73.9611C40.6547 78.061 44.4582 80.9034 48.558 80.3105L53.5065 79.5949C57.6064 79.0021 60.4488 75.1986 59.8559 71.0988L59.5872 69.2406C62.024 67.8551 64.2152 66.1161 66.1012 64.1004L67.8517 64.7996C71.6989 66.3373 76.0632 64.4634 77.5984 60.6166L79.453 55.9734C80.1912 54.1262 80.1654 52.0611 79.3809 50.2346C78.5961 48.4056 77.1172 46.965 75.27 46.2267L73.5247 45.5293C73.534 44.1614 73.4419 42.7728 73.2401 41.3773C73.0383 39.9818 72.7333 38.624 72.3368 37.3147L73.8131 36.1515C77.0674 33.5893 77.6282 28.8731 75.0636 25.6191L71.9696 21.6915C69.4075 18.4372 64.6912 17.8764 61.4372 20.441L59.9564 21.6074C57.5792 20.2082 54.9848 19.1588 52.2532 18.5231ZM47.558 20.9905C47.714 22.0693 48.5526 22.9255 49.6313 23.1005C52.9241 23.6347 56.0111 24.8934 58.7019 26.7322C59.6042 27.3469 60.8009 27.3077 61.6603 26.6302L64.5312 24.3686C65.6176 23.5143 67.188 23.7015 68.042 24.7854L71.1359 28.7131C71.9898 29.797 71.8055 31.3696 70.7191 32.2239L67.8549 34.4795C66.998 35.1566 66.6772 36.3094 67.0647 37.3295C67.634 38.8385 68.0511 40.4302 68.2915 42.0929C68.532 43.7556 68.5829 45.4002 68.4644 47.0087C68.3817 48.0968 69.016 49.1115 70.0296 49.5181L73.4154 50.8699C74.0321 51.1167 74.5258 51.596 74.7856 52.2051C75.0479 52.8138 75.0565 53.5022 74.8098 54.1188L72.9552 58.762C72.4433 60.0435 70.9902 60.6679 69.7063 60.1564C67.926 59.4438 66.3123 58.8007 66.3123 58.8007C65.2962 58.3944 64.1374 58.6958 63.4463 59.541C61.3862 62.0643 58.7802 64.1487 55.7764 65.596C54.7915 66.0693 54.2294 67.1256 54.3854 68.2044L54.9074 71.8144C55.1049 73.1802 54.1567 74.4489 52.7909 74.6464L47.8424 75.362C46.4766 75.5595 45.2079 74.6113 45.0104 73.2455C44.7363 71.3502 44.4883 69.6355 44.4883 69.6355C44.3323 68.5568 43.4937 67.7005 42.415 67.5256C39.1222 66.9914 36.0352 65.7327 33.3444 63.8939C32.4421 63.2792 31.2454 63.3184 30.386 63.9958L27.5151 66.2575C26.4287 67.1117 24.8583 66.9246 24.0043 65.8406L20.9104 61.913C20.0565 60.8291 20.2408 59.2565 21.3272 58.4022L24.1914 56.1466C25.0483 55.4695 25.3691 54.3167 24.9816 53.2966C24.4123 51.7876 23.9952 50.1959 23.7548 48.5332C23.5143 46.8705 23.4634 45.2259 23.5819 43.6173C23.6646 42.5293 23.0303 41.5146 22.0167 41.108L18.6309 39.7561C18.0142 39.5094 17.5205 39.0301 17.2607 38.421C16.9984 37.8123 16.9898 37.1239 17.2366 36.5073L19.0911 31.864C19.603 30.5826 21.0561 29.9582 22.34 30.4697C24.1203 31.1823 25.734 31.8254 25.734 31.8254C26.7501 32.2317 27.9089 31.9302 28.6 31.0851C30.6601 28.5618 33.2661 26.4774 36.2699 25.0301C37.2548 24.5567 37.8169 23.5005 37.6609 22.4217L37.1389 18.8117C36.9414 17.4459 37.8896 16.1772 39.2554 15.9797L44.2039 15.2641C45.5697 15.0666 46.8384 16.0148 47.0359 17.3805C47.31 19.2758 47.558 20.9905 47.558 20.9905ZM43.8764 30.4675C35.6841 31.6521 29.9929 39.2675 31.1776 47.4598C32.3622 55.6521 39.9776 61.3433 48.1699 60.1586C56.3622 58.974 62.0534 51.3586 60.8687 43.1663C59.6841 34.974 52.0687 29.2828 43.8764 30.4675ZM44.592 35.416C50.0552 34.626 55.1302 38.4187 55.9202 43.8819C56.7102 49.345 52.9175 54.4201 47.4543 55.2101C41.9912 56.0001 36.9161 52.2074 36.1261 46.7442C35.3361 41.281 39.1288 36.206 44.592 35.416Z" fill="#154852"/>
<path fill-rule="evenodd" clip-rule="evenodd" d="M93.7727 70.8996C96.1588 71.6488 98.3171 72.9161 100.118 74.5682C100.118 74.5682 101.134 73.9826 102.254 73.3346C103.869 72.4031 105.933 72.9549 106.864 74.5699C107.408 75.5098 108.01 76.5527 108.552 77.4926C109.485 79.1076 108.931 81.1714 107.317 82.1029C106.198 82.7492 105.185 83.3331 105.185 83.3331C105.447 84.5143 105.585 85.7411 105.585 87C105.585 88.2589 105.447 89.4857 105.185 90.6669C105.185 90.6669 106.198 91.2508 107.317 91.8971C108.093 92.3443 108.658 93.0817 108.889 93.9457C109.12 94.8114 109.001 95.7328 108.552 96.5074C108.01 97.4473 107.408 98.4902 106.864 99.4301C105.933 101.045 103.869 101.597 102.254 100.665C101.134 100.017 100.118 99.4318 100.118 99.4318C98.3171 101.084 96.1588 102.351 93.7727 103.1V105.562C93.7727 107.427 92.2624 108.938 90.3977 108.938C89.3109 108.938 88.1094 108.938 87.0227 108.938C85.158 108.938 83.6477 107.427 83.6477 105.562C83.6477 104.27 83.6477 103.1 83.6477 103.1C81.2615 102.351 79.1032 101.084 77.3027 99.4318C77.3027 99.4318 76.2868 100.017 75.1663 100.665C73.5514 101.597 71.4875 101.045 70.556 99.4301C70.0127 98.4902 69.4102 97.4473 68.8685 96.5074C67.9354 94.8924 68.4889 92.8286 70.1038 91.8971C71.2226 91.2508 72.2351 90.6669 72.2351 90.6669C71.9735 89.4857 71.8352 88.2589 71.8352 87C71.8352 85.7411 71.9735 84.5143 72.2351 83.3331C72.2351 83.3331 71.2226 82.7492 70.1038 82.1029C69.3275 81.6557 68.7622 80.9183 68.531 80.0543C68.2999 79.1886 68.4197 78.2672 68.8685 77.4926C69.4102 76.5527 70.0127 75.5098 70.556 74.5699C71.4875 72.9549 73.5514 72.4031 75.1663 73.3346C76.2868 73.9826 77.3027 74.5682 77.3027 74.5682C79.1032 72.9161 81.2615 71.6488 83.6477 70.8996V68.4375C83.6477 66.5728 85.158 65.0625 87.0227 65.0625C88.1094 65.0625 89.3109 65.0625 90.3977 65.0625C92.2624 65.0625 93.7727 66.5728 93.7727 68.4375C93.7727 69.7301 93.7727 70.8996 93.7727 70.8996Z" fill="#90E0EF"/>
<path fill-rule="evenodd" clip-rule="evenodd" d="M95.4602 69.7048V68.4375C95.4602 65.6413 93.1939 63.375 90.3977 63.375H87.0227C84.2265 63.375 81.9602 65.6413 81.9602 68.4375V69.7048C80.1985 70.395 78.5666 71.3451 77.112 72.5094L76.0101 71.8733C73.5885 70.4743 70.4919 71.3046 69.0947 73.7261L67.4072 76.6489C66.7356 77.8116 66.5533 79.1936 66.9009 80.4896C67.2486 81.7873 68.0974 82.8926 69.2601 83.5642L70.3586 84.1987C70.2203 85.1117 70.1477 86.0483 70.1477 87C70.1477 87.9517 70.2203 88.8883 70.3586 89.8013L69.2601 90.4358C66.8385 91.833 66.0083 94.9296 67.4072 97.3511L69.0947 100.274C70.4919 102.695 73.5885 103.526 76.0101 102.127L77.112 101.491C78.5666 102.655 80.1985 103.607 81.9602 104.295V105.562C81.9602 108.359 84.2265 110.625 87.0227 110.625H90.3977C93.1939 110.625 95.4602 108.359 95.4602 105.562V104.295C97.222 103.605 98.8538 102.655 100.308 101.491L101.41 102.127C103.832 103.526 106.928 102.695 108.326 100.274L110.013 97.3511C110.685 96.1884 110.867 94.8064 110.519 93.5104C110.172 92.2127 109.323 91.1074 108.16 90.4358L107.062 89.8013C107.2 88.8883 107.273 87.9517 107.273 87C107.273 86.0483 107.2 85.1117 107.062 84.1987L108.16 83.5642C110.582 82.167 111.412 79.0704 110.013 76.6489L108.326 73.7261C106.928 71.3046 103.832 70.4743 101.41 71.8733L100.308 72.5094C98.8555 71.3451 97.2236 70.3933 95.4602 69.7048ZM92.0852 70.8996C92.0852 71.6353 92.5628 72.2884 93.2664 72.5094C95.4146 73.1844 97.3553 74.3235 98.9753 75.8119C99.5186 76.3097 100.322 76.3991 100.961 76.0296L103.098 74.796C103.906 74.3303 104.937 74.607 105.403 75.4136L107.09 78.3364C107.556 79.143 107.281 80.1757 106.473 80.6415L104.342 81.8717C103.704 82.2412 103.378 82.9804 103.538 83.6993C103.773 84.7624 103.898 85.866 103.898 87C103.898 88.134 103.773 89.2376 103.538 90.3007C103.378 91.0196 103.704 91.7588 104.342 92.1283L106.473 93.3585C106.861 93.5829 107.144 93.9508 107.259 94.3828C107.376 94.8148 107.315 95.2755 107.09 95.6636L105.403 98.5864C104.937 99.393 103.906 99.6697 103.098 99.204C101.977 98.556 100.961 97.9705 100.961 97.9705C100.322 97.6009 99.5186 97.6903 98.9753 98.1881C97.3553 99.6748 95.4129 100.816 93.2664 101.492C92.5628 101.713 92.0852 102.365 92.0852 103.1V105.562C92.0852 106.494 91.3292 107.25 90.3977 107.25H87.0227C86.0912 107.25 85.3352 106.494 85.3352 105.562C85.3352 104.27 85.3352 103.1 85.3352 103.1C85.3352 102.365 84.8576 101.712 84.154 101.491C82.0058 100.816 80.0651 99.6765 78.4451 98.1881C77.9018 97.6903 77.0985 97.6009 76.4589 97.9705L74.3226 99.204C73.5143 99.6697 72.4832 99.393 72.0175 98.5864L70.33 95.6636C69.8642 94.857 70.1393 93.8243 70.9476 93.3585L73.0789 92.1283C73.7168 91.7588 74.0424 91.0196 73.8821 90.3007C73.6476 89.2376 73.5227 88.134 73.5227 87C73.5227 85.866 73.6476 84.7624 73.8821 83.6993C74.0424 82.9804 73.7168 82.2412 73.0789 81.8717L70.9476 80.6415C70.5594 80.4171 70.276 80.0492 70.1612 79.6172C70.0448 79.1852 70.1055 78.7245 70.33 78.3364L72.0175 75.4136C72.4832 74.607 73.5143 74.3303 74.3226 74.796C75.4431 75.444 76.4589 76.0296 76.4589 76.0296C77.0985 76.3991 77.9018 76.3097 78.4451 75.8119C80.0651 74.3252 82.0075 73.1844 84.154 72.5077C84.8576 72.2867 85.3352 71.6353 85.3352 70.8996V68.4375C85.3352 67.506 86.0912 66.75 87.0227 66.75H90.3977C91.3292 66.75 92.0852 67.506 92.0852 68.4375C92.0852 69.7301 92.0852 70.8996 92.0852 70.8996ZM88.7102 76.875C83.1229 76.875 78.5852 81.4127 78.5852 87C78.5852 92.5873 83.1229 97.125 88.7102 97.125C94.2975 97.125 98.8352 92.5873 98.8352 87C98.8352 81.4127 94.2975 76.875 88.7102 76.875ZM88.7102 80.25C92.4362 80.25 95.4602 83.274 95.4602 87C95.4602 90.726 92.4362 93.75 88.7102 93.75C84.9842 93.75 81.9602 90.726 81.9602 87C81.9602 83.274 84.9842 80.25 88.7102 80.25Z" fill="#1990A7"/>
<path fill-rule="evenodd" clip-rule="evenodd" d="M132.888 31.6909C135.675 32.8275 138.138 34.5629 140.133 36.7241C140.133 36.7241 141.41 36.123 142.819 35.4573C144.849 34.5009 147.27 35.3685 148.226 37.3986C148.784 38.5803 149.403 39.8913 149.959 41.0729C150.918 43.1031 150.048 45.5236 148.018 46.48C146.611 47.1438 145.339 47.7433 145.339 47.7433C145.535 49.1864 145.578 50.6718 145.453 52.1819C145.327 53.692 145.039 55.1499 144.608 56.5408C144.608 56.5408 145.764 57.3421 147.042 58.229C147.928 58.8428 148.533 59.7837 148.724 60.8432C148.915 61.9047 148.68 62.998 148.064 63.8824C147.32 64.9559 146.494 66.1469 145.748 67.2202C144.47 69.0646 141.939 69.5208 140.095 68.2424C138.815 67.3534 137.655 66.5498 137.655 66.5498C135.331 68.3521 132.615 69.6571 129.678 70.3181L129.433 73.2715C129.247 75.5083 127.285 77.1695 125.048 76.9836C123.744 76.8753 122.303 76.7556 120.999 76.6472C118.762 76.4614 117.101 74.4991 117.287 72.2623C117.416 70.7117 117.532 69.3088 117.532 69.3088C114.745 68.1722 112.282 66.4369 110.287 64.2756C110.287 64.2756 109.01 64.8768 107.601 65.5424C105.571 66.4989 103.15 65.6312 102.194 63.6011C101.636 62.4194 101.017 61.1084 100.461 59.9269C99.5026 57.8966 100.372 55.4761 102.402 54.5197C103.809 53.8559 105.082 53.2565 105.082 53.2565C104.886 51.8134 104.842 50.3279 104.967 48.8178C105.093 47.3077 105.381 45.8499 105.813 44.4589C105.813 44.4589 104.656 43.6576 103.379 42.7708C102.492 42.157 101.887 41.2161 101.696 40.1566C101.505 39.0951 101.741 38.0018 102.356 37.1174C103.1 36.0438 103.926 34.8529 104.672 33.7795C105.95 31.9352 108.481 31.4789 110.325 32.7573C111.605 33.6463 112.765 34.45 112.765 34.45C115.09 32.6477 117.805 31.3426 120.742 30.6817L120.988 27.7283C121.173 25.4914 123.136 23.8302 125.373 24.0161C126.676 24.1244 128.117 24.2442 129.421 24.3525C131.658 24.5384 133.319 26.5007 133.133 28.7375C133.004 30.2881 132.888 31.6909 132.888 31.6909Z" fill="#EFE090"/>
<path fill-rule="evenodd" clip-rule="evenodd" d="M135.031 30.426L135.158 28.9058C135.436 25.5516 132.944 22.6071 129.589 22.3283L125.541 21.9919C122.187 21.7132 119.242 24.2059 118.963 27.5601L118.837 29.0804C116.655 29.7327 114.603 30.7097 112.742 31.9615L111.483 31.0885C108.718 29.169 104.921 29.8563 103.003 32.6218L100.688 35.9597C99.766 37.2874 99.4096 38.9272 99.6974 40.5165C99.985 42.1078 100.893 43.5183 102.221 44.4398L103.475 45.3105C103.218 46.3918 103.038 47.508 102.943 48.6497C102.848 49.7914 102.842 50.9221 102.917 52.0311L101.536 52.6827C98.4918 54.1174 97.1872 57.7492 98.624 60.7935L100.357 64.4677C101.792 67.5118 105.423 68.8164 108.468 67.3796L109.853 66.7264C111.482 68.2681 113.344 69.5724 115.389 70.5739L115.263 72.0942C114.984 75.4484 117.477 78.3929 120.831 78.6716L124.88 79.008C128.234 79.2867 131.178 76.794 131.457 73.4398L131.583 71.9196C133.765 71.2672 135.818 70.2903 137.679 69.0385L138.937 69.9114C141.702 71.8309 145.5 71.1437 147.417 68.3781L149.733 65.0403C150.654 63.7125 151.011 62.0728 150.723 60.4835C150.435 58.8922 149.527 57.4817 148.199 56.5601L146.945 55.6895C147.202 54.6082 147.382 53.4919 147.477 52.3502C147.572 51.2085 147.578 50.0778 147.503 48.9689L148.884 48.3173C151.929 46.8825 153.233 43.2508 151.796 40.2065L150.063 36.5323C148.629 33.4881 144.997 32.1836 141.953 33.6203L140.567 34.2736C138.941 32.732 137.078 31.4277 135.031 30.426ZM130.864 31.5228C130.79 32.4054 131.298 33.2364 132.12 33.5717C134.63 34.5955 136.844 36.1553 138.639 38.1022C139.241 38.7535 140.196 38.9409 141 38.5613L143.686 37.2945C144.702 36.8164 145.911 37.2512 146.389 38.2652L148.122 41.9394C148.6 42.9535 148.168 44.1649 147.151 44.643L144.472 45.9063C143.67 46.286 143.206 47.1402 143.326 48.0185C143.502 49.3172 143.542 50.6535 143.429 52.0138C143.316 53.3741 143.056 54.6855 142.668 55.9375C142.405 56.7838 142.722 57.7029 143.45 58.2098L145.884 59.898C146.327 60.2059 146.631 60.6754 146.725 61.2051C146.822 61.7349 146.703 62.2815 146.395 62.7247L144.079 66.0625C143.44 66.9837 142.176 67.2129 141.253 66.5736C139.973 65.6846 138.813 64.881 138.813 64.881C138.083 64.3739 137.11 64.4011 136.409 64.9441C134.317 66.566 131.873 67.7408 129.231 68.3386C128.365 68.5337 127.727 69.2674 127.654 70.15L127.408 73.1034C127.316 74.2208 126.333 75.0523 125.216 74.9595L121.167 74.6231C120.05 74.5302 119.219 73.548 119.311 72.4306C119.44 70.88 119.557 69.4771 119.557 69.4771C119.63 68.5945 119.122 67.7636 118.3 67.4283C115.791 66.4044 113.576 64.8446 111.781 62.8977C111.179 62.2464 110.224 62.0591 109.42 62.4386L106.735 63.7054C105.719 64.1835 104.509 63.7488 104.031 62.7348L102.298 59.0605C101.82 58.0465 102.253 56.8351 103.269 56.3569L105.948 55.0937C106.75 54.7139 107.215 53.8598 107.094 52.9814C106.918 51.6828 106.879 50.3465 106.992 48.9861C107.105 47.6258 107.365 46.3144 107.752 45.0625C108.016 44.2161 107.699 43.297 106.97 42.7901L104.536 41.102C104.093 40.7941 103.79 40.3245 103.695 39.7949C103.599 39.2651 103.717 38.7185 104.025 38.2753L106.341 34.9374C106.98 34.0163 108.244 33.7871 109.168 34.4263C110.447 35.3153 111.607 36.119 111.607 36.119C112.338 36.6261 113.31 36.5988 114.012 36.0558C116.103 34.4339 118.547 33.2591 121.189 32.6613C122.055 32.4663 122.693 31.7326 122.766 30.85L123.012 27.8966C123.105 26.7792 124.087 25.9476 125.204 26.0405L129.253 26.3769C130.37 26.4697 131.202 27.452 131.109 28.5694C130.98 30.12 130.864 31.5228 130.864 31.5228ZM126.219 38.3543C119.517 37.7974 113.621 42.7884 113.065 49.4908C112.508 56.1931 117.499 62.0887 124.201 62.6456C130.903 63.2025 136.799 58.2116 137.356 51.5092C137.913 44.8068 132.922 38.9113 126.219 38.3543ZM125.883 42.4029C130.353 42.7743 133.679 46.7032 133.307 51.1728C132.936 55.6424 129.007 58.9685 124.537 58.5971C120.068 58.2257 116.742 54.2968 117.113 49.8272C117.484 45.3576 121.413 42.0315 125.883 42.4029Z" fill="#74D24F"/>
</svg>
