<svg width="44" height="43" viewBox="0 0 44 43" fill="none" xmlns="http://www.w3.org/2000/svg">
<path d="M7.64531 0.759766L5.44531 2.95664L8.71875 6.22852L10.9156 4.03164L7.64375 0.759766H7.64531ZM36.3563 0.759766L33.0828 4.03164L35.2812 6.22852L38.5531 2.9582L36.3563 0.759766ZM22 1.73477C21.4844 1.74102 20.9625 1.7707 20.4375 1.83477C20.4219 1.83477 20.4062 1.83164 20.3906 1.83477C14.0531 2.56133 9.00937 7.68164 8.13281 13.991C7.43281 19.0691 9.52656 23.6738 13.0156 26.6395C14.4428 27.8575 15.4082 29.5289 15.75 31.3738V40.7488H19.3125C19.8562 41.6816 20.8484 42.3113 22 42.3113C23.1516 42.3113 24.1437 41.6816 24.6875 40.7488H28.25V34.4988H28.3969V32.6426C28.3969 30.352 29.5875 28.0426 31.5219 26.2473C34.1094 23.6566 36.0625 19.977 36.0625 15.7504C36.0625 8.03164 29.7094 1.66289 22 1.73477ZM22 4.85977C28.0391 4.77539 32.9375 9.71914 32.9375 15.7504C32.9375 19.0223 31.4219 21.9035 29.3234 24.0004L29.3734 24.0504C27.2881 25.9734 25.9396 28.5641 25.5609 31.3754H18.7266C18.3828 28.6973 17.2344 26.1051 15.0641 24.2457C12.3031 21.902 10.6578 18.3707 11.2078 14.3832C11.8906 9.46133 15.8844 5.50352 20.7781 4.96133C21.1822 4.905 21.5891 4.87161 21.9969 4.86133L22 4.85977ZM0.125 15.7504V18.8754H4.8125V15.7504H0.125ZM39.1875 15.7504V18.8754H43.875V15.7504H39.1875ZM8.71875 28.3973L5.44688 31.6676L7.64531 33.866L10.9141 30.5941L8.71875 28.3973ZM35.2812 28.3973L33.0844 30.5941L36.3547 33.866L38.5531 31.6676L35.2812 28.3973ZM18.875 34.5004H25.125V37.6254H18.875V34.5004Z" fill="url(#paint0_linear_954_10545)"/>
<defs>
<linearGradient id="paint0_linear_954_10545" x1="3.87072" y1="42.3113" x2="53.9135" y2="42.3113" gradientUnits="userSpaceOnUse">
<stop stop-color="#FD6815"/>
<stop offset="1" stop-color="#FF0000"/>
</linearGradient>
</defs>
</svg>
