<svg width="40" height="40" viewBox="0 0 40 40" fill="none" xmlns="http://www.w3.org/2000/svg">
<g id="Instagram">
<path id="Vector" d="M34.7248 11.2333C34.3915 11.45 33.9165 11.65 33.7165 11.875C33.6415 11.95 33.5998 12.0333 33.6165 12.1167V12.975L33.3665 13.8167L33.1165 14.65L32.8415 15.5667L32.2748 17.4417L31.7248 19.2917L31.3082 20.6833C31.3082 20.9 31.2998 21.1167 31.2832 21.325C31.2248 22.125 31.0582 22.8917 30.7915 23.6083C30.6332 24.05 30.4415 24.475 30.2082 24.875C30.1248 25.0333 30.0248 25.1917 29.9248 25.3417C29.5915 25.8667 29.1915 26.35 28.7498 26.775C28.4082 27.1167 28.0332 27.4333 27.6248 27.7C27.6248 27.7 27.6248 27.7 27.6165 27.7C27.5498 27.7583 27.4748 27.8083 27.3915 27.85C27.1332 28.025 26.8582 28.175 26.5748 28.3083C26.3832 28.4083 26.1915 28.4917 25.9915 28.5667C25.9498 28.5917 25.8998 28.6083 25.8582 28.625C25.3832 28.85 24.8332 29 24.2832 29.075C24.2498 29.0833 24.2248 29.0833 24.1915 29.0917C23.8582 29.15 23.5332 29.2 23.1998 29.225C23.0498 29.2417 22.8915 29.25 22.7415 29.25L22.1498 29.2167L19.2998 29.0667C19.2998 29.0583 19.2915 29.0667 19.2915 29.0667L17.8582 28.9917C17.7498 28.9917 17.6332 28.9917 17.5248 28.9833C17.0748 28.9667 16.6415 28.9167 16.2082 28.825C16.1998 28.825 16.1998 28.825 16.1998 28.825C15.4082 28.675 14.6498 28.4083 13.9415 28.05C13.5498 27.85 13.1665 27.625 12.8082 27.3667C12.6582 27.2583 12.5165 27.1417 12.3748 27.0167C11.9748 26.6833 11.6165 26.325 11.2832 25.9583C11.2332 25.9083 11.1915 25.8583 11.1498 25.8083C11.0998 25.7583 11.0498 25.7 11.0082 25.65C10.6915 25.25 10.4248 24.8417 10.2082 24.4083C10.0082 24.025 9.84984 23.6167 9.72484 23.1667C9.67484 23.0083 9.63317 22.8583 9.59984 22.6917C9.5915 22.6833 9.58317 22.6667 9.58317 22.65C9.49984 22.3083 9.42484 21.95 9.38317 21.5917C9.33317 21.3167 9.30817 21.0417 9.30817 20.7583C9.2915 20.65 9.2915 20.5333 9.2915 20.425L10.8832 17.9667L12.4415 15.5667L13.1498 14.475L13.7915 13.4917L14.0082 13.15V12.2917C14.0248 12.1 14.0332 11.9 14.0248 11.7167C14.0165 11.1333 13.8998 10.5667 13.7082 10.025C13.5248 9.45 13.2665 8.90833 12.9998 8.40833C12.6832 7.83333 12.3498 7.31667 12.0748 6.85C11.6665 6.16667 11.3832 5.60833 11.4582 5.21667C12.0582 5.075 12.6915 5 13.3332 5H26.6665C30.1498 5 33.1498 7.16667 34.3915 10.2167C34.5248 10.5417 34.6415 10.8833 34.7248 11.2333Z" fill="#304FFE"/>
<path id="Vector_2" d="M34.9998 13.3333V13.5583L33.8498 14.225L33.1164 14.65L32.3081 15.1167L30.6914 16.0583L29.1081 16.975L27.4914 17.9083L26.8498 18.2833C26.8498 18.6833 26.7498 19.05 26.5664 19.3833C26.3081 19.8667 25.8748 20.2667 25.3248 20.6083C24.7664 20.95 24.0831 21.225 23.3164 21.425C23.3164 21.425 23.3164 21.4167 23.3081 21.425C20.3414 22.1917 16.2914 21.8417 14.3248 20.375C13.7748 19.9667 13.3914 19.4667 13.2248 18.8917C13.1748 18.7 13.1498 18.4917 13.1498 18.2833V12.2917C13.1581 12.1667 13.0748 12.0417 12.9248 11.9167C12.4748 11.5583 11.4164 11.2167 10.2331 10.875C9.30811 10.6167 8.31644 10.3583 7.48311 10.1083C6.82477 9.90833 6.26644 9.70833 5.93311 9.51667C6.08311 9.225 6.25811 8.93333 6.44144 8.65833C7.60811 6.95 9.39144 5.69167 11.4581 5.21667C12.0581 5.075 12.6914 5 13.3331 5H22.3331C26.8081 5.78333 30.9331 7.60833 34.3914 10.2167C34.5248 10.5417 34.6414 10.8833 34.7248 11.2333C34.8748 11.7833 34.9664 12.35 34.9914 12.9417C34.9998 13.0667 34.9998 13.2 34.9998 13.3333Z" fill="#4928F4"/>
<path id="Vector_3" d="M34.9999 13.3331V17.0081L34.8166 17.5748L34.1916 19.5165L33.5416 21.5165L33.1999 22.5831L32.8833 23.5748L32.5749 24.5165L32.2749 25.4498L32.1166 25.9415L31.9083 26.5915C31.9083 27.2248 31.8916 27.7831 31.8499 28.2581C31.8416 28.3081 31.8333 28.3581 31.8333 28.4081C31.7833 28.8498 31.7166 29.2248 31.6083 29.5415C31.5999 29.5915 31.5833 29.6415 31.5666 29.6831C31.3499 30.2831 31.0249 30.6665 30.5416 30.9165C30.4249 30.9831 30.2916 31.0331 30.1499 31.0831C29.7083 31.2331 29.1499 31.3081 28.4666 31.3498C27.9666 31.3831 27.3916 31.3915 26.7416 31.3915H26.1666L25.1749 31.3498L24.9999 31.3415L23.1916 31.2665L21.3583 31.1915L15.3166 30.9415L13.7499 30.8748H13.5333C12.8833 30.8665 12.3249 30.8248 11.8416 30.7581C11.1416 30.6498 10.5999 30.4665 10.1916 30.1915C9.60827 29.8165 9.2666 29.2665 9.0666 28.4998C9.0166 28.3165 8.97493 28.1248 8.94993 27.9165C8.8666 27.4331 8.82494 26.8748 8.79994 26.2498C8.79994 26.1248 8.79993 25.9998 8.7916 25.8665C8.78327 25.8581 8.7916 25.8581 8.7916 25.8581V25.3748C8.78327 25.1331 8.78327 24.8831 8.78327 24.6248L8.82493 23.2831L8.84993 22.3248L8.88327 21.2081V21.0498L8.9416 18.9998L8.99993 16.9498L9.05827 15.0248L9.10827 13.1331L9.12493 12.6331C9.12493 12.3748 8.24993 12.2248 7.27493 12.0998C6.49993 11.9998 5.64993 11.9081 5.1416 11.7915C5.18327 11.5998 5.22493 11.4081 5.27493 11.2248C5.42493 10.6248 5.64993 10.0581 5.93327 9.51647C6.08327 9.2248 6.25827 8.93314 6.4416 8.65814C8.2416 7.86647 10.1166 7.2498 12.0749 6.8498C13.7916 6.49147 15.5833 6.2998 17.4333 6.2998C23.5666 6.2998 29.2333 8.3748 33.7166 11.8748C34.1499 12.2081 34.5749 12.5665 34.9916 12.9415C34.9999 13.0665 34.9999 13.1998 34.9999 13.3331Z" fill="#6200EA"/>
<path id="Vector_4" d="M35 15.3088V19.0921L34.5417 19.9755L33.6667 21.6838L33.2 22.5838L32.775 23.4088L32.5917 23.7671C32.5917 24.0255 32.5917 24.2755 32.575 24.5171C32.575 24.8755 32.5583 25.2171 32.5333 25.5338C32.5 25.9088 32.45 26.2505 32.4 26.5671C32.275 27.2255 32.1 27.7921 31.85 28.2588C31.8167 28.3171 31.7833 28.3755 31.75 28.4255C31.6583 28.5755 31.55 28.7171 31.4333 28.8505C31.2833 29.0338 31.1167 29.1921 30.925 29.3255C30.6417 29.5421 30.3083 29.7171 29.925 29.8505C29.45 30.0255 28.9 30.1421 28.25 30.2088C27.825 30.2505 27.3583 30.2755 26.85 30.2755L26.5 30.2921L24.7667 30.3921H24.7583L22.9167 30.5005L21.0417 30.6088L18.4583 30.7588L15.3167 30.9421L14.8583 30.9671C14.4333 30.9671 14.0333 30.9421 13.65 30.8921C13.6083 30.8838 13.575 30.8755 13.5333 30.8755C12.9667 30.7838 12.45 30.6338 11.9833 30.4255C11.4167 30.1755 10.925 29.8421 10.5083 29.4421C10.1417 29.0838 9.825 28.6755 9.56667 28.2171C9.50833 28.1088 9.45 28.0088 9.4 27.8921C9.15 27.4005 8.95 26.8505 8.8 26.2505C8.775 26.1505 8.75 26.0421 8.73333 25.9338C8.68333 25.7421 8.64167 25.5421 8.61667 25.3338C8.525 24.8005 8.475 24.2338 8.45 23.6421V23.6338C8.44167 23.3921 8.43333 23.1588 8.43333 22.9088L8.025 21.9338L7.96667 21.7838L7.91667 21.6588L7.29167 20.1671L7.19167 19.9255L6.59167 18.4838L5.925 16.8755C5.925 16.8755 5.925 16.8755 5.91667 16.8755L5.24167 15.2505L5 14.6588V13.3338C5 12.8088 5.05 12.2921 5.14167 11.7921C5.18333 11.6005 5.225 11.4088 5.275 11.2255C5.98333 10.8171 6.725 10.4421 7.48333 10.1088C9.21667 9.33379 11.075 8.75879 13 8.40879C14.4333 8.15046 15.925 8.00879 17.4333 8.00879C23.525 8.00879 29.05 10.2171 33.3667 13.8171C33.5333 13.9505 33.6917 14.0838 33.85 14.2255C34.2417 14.5671 34.625 14.9255 35 15.3088Z" fill="#673AB7"/>
<path id="Vector_5" d="M35 17.7913V22.0746L34.525 23.0663L33.625 24.9413L33.6167 24.9663C33.6167 25.3246 33.6 25.6496 33.575 25.9413C33.4917 26.8996 33.2583 27.5079 32.875 27.8829C32.6 28.1663 32.2583 28.3246 31.8333 28.4079C31.8083 28.4163 31.775 28.4163 31.75 28.4246C31.6167 28.4496 31.475 28.4663 31.325 28.4663C30.8083 28.5163 30.2 28.4829 29.5 28.4329C29.425 28.4329 29.3417 28.4246 29.2583 28.4163C28.75 28.3829 28.2083 28.3496 27.6083 28.3246C27.2833 28.3163 26.9417 28.3079 26.5917 28.3079H26.575L25.7333 28.3746H25.725L23.8333 28.5079L21.675 28.6746L21.3583 28.6996L18.8333 28.8829L17.525 28.9829L16.2333 29.0746C16.0083 29.0746 15.7917 29.0746 15.575 29.0663C15.575 29.0663 15.5667 29.0579 15.5667 29.0663C14.625 29.0496 13.7833 28.9913 13.0333 28.8496C12.3417 28.7329 11.7333 28.5496 11.2167 28.2746C10.6833 28.0163 10.2417 27.6496 9.88333 27.1829C9.54167 26.7246 9.29167 26.1496 9.13333 25.4579C9.13333 25.4496 9.13333 25.4496 9.13333 25.4496C9.01667 24.8913 8.95 24.2413 8.95 23.5079L8.825 23.2829L8.08333 21.9579L7.975 21.7746L7.91667 21.6579L7.14167 20.2829L6.75833 19.5913L6.275 18.7329L5.44167 17.2413L5 16.4579V13.3913C5.73333 12.9079 6.49167 12.4829 7.275 12.0996C8.225 11.6163 9.20833 11.2079 10.2333 10.8746C11.35 10.5079 12.5167 10.2163 13.7083 10.0246C14.9167 9.82461 16.1583 9.72461 17.4333 9.72461C23.1 9.72461 28.3 11.7496 32.3083 15.1163C32.4917 15.2579 32.6667 15.4163 32.8417 15.5663C33.5417 16.1913 34.2083 16.8663 34.8167 17.5746C34.8833 17.6496 34.95 17.7163 35 17.7913Z" fill="#8E24AA"/>
<path id="Vector_6" d="M35 20.5919V26.6169C34.8 26.5003 34.525 26.3586 34.1833 26.2086C34 26.1169 33.7917 26.0253 33.575 25.9419C33.2583 25.8003 32.9167 25.6669 32.5333 25.5336C32.45 25.5003 32.3667 25.4753 32.275 25.4503C32.125 25.3919 31.9667 25.3419 31.8083 25.2919C31.3167 25.1419 30.775 25.0003 30.2083 24.8753C29.9917 24.8336 29.7667 24.7919 29.5417 24.7586C28.8167 24.6336 28.0417 24.5586 27.2333 24.5503C27.1667 24.5419 27.0917 24.5419 27.025 24.5419L24.8833 24.5586L21.9667 24.5753H21.9583L15.7167 24.6253C13.7333 24.6253 12.5167 25.1003 11.7833 25.2919C11.7833 25.2919 11.775 25.2919 11.775 25.3003C11 25.5003 10.7583 25.3753 10.6917 24.0169C10.675 23.6419 10.6667 23.1586 10.6667 22.5669L10.2 22.2086L9.38333 21.5919L8.88333 21.2086L8.78333 21.1336L7.4 20.0836L7.19167 19.9253L6.75833 19.5919L5.95833 18.9919L5 18.2586V15.4253C5.08333 15.3586 5.15833 15.3003 5.24167 15.2503C6.45 14.4169 7.74167 13.7086 9.10833 13.1336C10.325 12.6169 11.6083 12.2086 12.925 11.9169C13.2833 11.8419 13.65 11.7669 14.025 11.7169C15.1333 11.5253 16.275 11.4336 17.4333 11.4336C22.4417 11.4336 27.0417 13.1753 30.6917 16.0586C31.2417 16.4919 31.775 16.9503 32.275 17.4419C32.9583 18.0919 33.6 18.7836 34.1917 19.5169C34.3083 19.6669 34.425 19.8169 34.5417 19.9753C34.7 20.1753 34.85 20.3836 35 20.5919Z" fill="#C2185B"/>
<path id="Vector_7" d="M35 23.9337V26.6671C35 27.2087 34.95 27.7421 34.85 28.2587C34.7 29.0254 34.4417 29.7587 34.0917 30.4421C33.9083 30.4837 33.7 30.4837 33.4667 30.4504C32.9417 30.3587 32.325 30.0837 31.6583 29.7254C31.625 29.7171 31.5917 29.7004 31.5667 29.6837C31.3583 29.5754 31.1417 29.4587 30.925 29.3254C30.4833 29.0837 30.0167 28.8171 29.55 28.5671C29.45 28.5171 29.35 28.4671 29.2583 28.4171C28.725 28.1421 28.175 27.8921 27.625 27.7004C27.625 27.7004 27.625 27.7004 27.6167 27.7004C27.5 27.6587 27.375 27.6171 27.25 27.5837C26.775 27.4504 26.2917 27.3671 25.825 27.3671L24.9083 27.1004L20.85 25.9254C20.85 25.9254 20.85 25.9254 20.8417 25.9254L18.35 25.2004H18.3417L17.2583 24.8837C14.125 24.8837 12.2 26.2171 11.2667 25.7087C10.9 25.5171 10.6833 25.0337 10.6083 24.0837C10.5833 23.8171 10.575 23.5171 10.575 23.1671L9.6 22.6921L9.55833 22.6754H9.55L8.85 22.3254L8.08333 21.9587L8.025 21.9337L7.88333 21.8587L6.25 21.0671L5 20.4587V17.6004C5.14167 17.4754 5.29167 17.3587 5.44167 17.2421C5.6 17.1171 5.75833 17.0004 5.91667 16.8754C5.925 16.8754 5.925 16.8754 5.925 16.8754C6.90833 16.1671 7.95 15.5421 9.05833 15.0254C10.35 14.4087 11.725 13.9337 13.15 13.6254C13.3583 13.5754 13.575 13.5254 13.7917 13.4921C14.975 13.2671 16.1917 13.1504 17.4333 13.1504C21.825 13.1504 25.8583 14.5754 29.1083 16.9754C30.05 17.6754 30.925 18.4504 31.725 19.2921C32.3833 19.9837 32.9917 20.7337 33.5417 21.5171C33.5833 21.5754 33.625 21.6337 33.6667 21.6837C33.975 22.1337 34.2583 22.5921 34.525 23.0671C34.7 23.3504 34.85 23.6421 35 23.9337Z" fill="#D81B60"/>
<path id="Vector_8" d="M34.85 28.2584C34.7 29.0251 34.4417 29.7584 34.0917 30.4417C33.9333 30.7501 33.7583 31.0417 33.5667 31.3251C33.45 31.5001 33.325 31.6667 33.2 31.8251C32.9 31.7084 32.4583 31.5417 31.9167 31.3584C31.9167 31.3584 31.9167 31.3584 31.9167 31.3501C31.5083 31.2084 31.0417 31.0584 30.5417 30.9167C30.4 30.8751 30.2583 30.8334 30.1083 30.7917C29.5167 30.6334 28.9 30.4917 28.3 30.4084C27.8 30.3251 27.3083 30.2751 26.85 30.2751L26.4667 30.1667H26.4583L24.4417 29.5834L23.2 29.2251L21.8167 28.8251H21.8083L21.3583 28.7001L15.9167 27.1334L14.35 26.6834L13.1833 26.4084L11.2833 25.9584L11.05 25.9001C11.05 25.9001 11.05 25.9001 11.0417 25.9001L9.13333 25.4584C9.13333 25.4501 9.13333 25.4501 9.13333 25.4501L8.79167 25.3751L8.61667 25.3334L7.225 25.0084L7.06667 24.9667L5.88333 23.9917L5 23.2501V19.8501C5.30833 19.5501 5.625 19.2667 5.95833 18.9917C6.05833 18.9001 6.16667 18.8167 6.275 18.7334C6.375 18.6501 6.48333 18.5667 6.59167 18.4834C7.35 17.9084 8.15 17.3917 9 16.9501C10.0833 16.3667 11.2333 15.9001 12.4417 15.5667C12.675 15.4917 12.9083 15.4251 13.15 15.3751C14.5167 15.0334 15.95 14.8584 17.4333 14.8584C21.1583 14.8584 24.625 15.9834 27.4917 17.9084C28.9167 18.8667 30.2 20.0167 31.2833 21.3251C31.8333 21.9834 32.3333 22.6751 32.775 23.4084C32.8167 23.4667 32.85 23.5167 32.8833 23.5751C33.15 24.0167 33.4 24.4751 33.625 24.9417C33.8333 25.3584 34.0167 25.7751 34.1833 26.2084C34.45 26.8751 34.6667 27.5584 34.85 28.2584Z" fill="#F50057"/>
<path id="Vector_9" d="M33.5667 31.3252C33.45 31.5002 33.325 31.6669 33.2 31.8252C32.8333 32.2835 32.4333 32.7002 31.9833 33.0669C31.5917 33.3919 31.175 33.6835 30.7333 33.9335C30.5667 33.8919 30.4 33.8419 30.225 33.7752C29.675 33.5835 29.1 33.2669 28.5667 32.9335C27.7667 32.4252 27.075 31.8752 26.7667 31.6252C26.65 31.5252 26.5917 31.4752 26.5917 31.4752L25.175 31.3502L25 31.3335L23.1667 31.1752L21.2667 31.0085L18.4583 30.7585L14.0083 30.3669L13.9917 30.3585L12.425 29.6002L10.8417 28.8335L9.56667 28.2169L9.29167 28.0835L8.95 27.9169L7.76667 27.3419L6.19167 26.5835L5.7 26.3419L5 26.1252V22.4002C5.39167 21.9335 5.80833 21.4919 6.25 21.0669C6.53333 20.8002 6.83333 20.5335 7.14167 20.2835C7.19167 20.2419 7.24167 20.2002 7.29167 20.1669C7.325 20.1252 7.36667 20.1002 7.4 20.0835C7.89167 19.6835 8.40833 19.3252 8.94167 19.0002C9.55833 18.6085 10.2083 18.2585 10.8833 17.9669C11.6083 17.6419 12.3667 17.3669 13.15 17.1585C14.5083 16.7752 15.95 16.5752 17.4333 16.5752C20.8333 16.5752 23.975 17.6085 26.5667 19.3835C28.225 20.5169 29.6583 21.9502 30.7917 23.6085C31.1667 24.1419 31.5 24.7085 31.8083 25.2919C31.9167 25.5085 32.025 25.7252 32.1167 25.9419C32.2167 26.1502 32.3083 26.3585 32.4 26.5669C32.575 27.0002 32.7333 27.4335 32.875 27.8835C33.1417 28.7169 33.3417 29.5669 33.4667 30.4502C33.5083 30.7419 33.5417 31.0335 33.5667 31.3252Z" fill="#FF1744"/>
<path id="Vector_10" d="M31.9917 32.8499C31.9917 32.9165 31.9917 32.9915 31.9833 33.0665C31.5917 33.3915 31.175 33.6832 30.7333 33.9332C30.55 34.0332 30.3667 34.1332 30.175 34.2165C29.9833 34.3082 29.7917 34.3915 29.5917 34.4665C29.3083 34.3165 28.925 34.1332 28.5167 33.9582C27.9417 33.6999 27.3167 33.4665 26.8333 33.3915C26.7167 33.3665 26.6083 33.3582 26.5083 33.3582L25.1417 33.1832H25.125L23.425 32.9582L21.7083 32.7332L20.9083 32.6332L14.6083 31.8165C14.2 31.8165 13.7667 31.7915 13.3167 31.7332C12.7667 31.6832 12.1917 31.5999 11.6167 31.4832C11.05 31.3832 10.475 31.2499 9.925 31.1082C9.35 30.9749 8.78333 30.8165 8.25833 30.6665C7.65 30.4832 7.08333 30.3082 6.60833 30.1499C6.21667 30.0249 5.88333 29.9082 5.625 29.8165C5.475 29.4582 5.35 29.0832 5.25833 28.6999C5.08333 28.0499 5 27.3665 5 26.6665V25.2749C5.26667 24.8332 5.55833 24.3999 5.88333 23.9915C6.475 23.2082 7.15 22.4915 7.88333 21.8582C7.90833 21.8249 7.94167 21.7999 7.96667 21.7832L7.975 21.7749C8.23333 21.5415 8.5 21.3332 8.78333 21.1332C8.81667 21.0999 8.85 21.0749 8.88333 21.0499C9.01667 20.9499 9.15833 20.8499 9.30833 20.7582C10.5 19.9499 11.8167 19.3165 13.225 18.8915C14.5583 18.4915 15.9667 18.2832 17.4333 18.2832C20.3417 18.2832 23.0583 19.1415 25.325 20.6082C27 21.6832 28.4417 23.0999 29.5417 24.7582C29.675 24.9499 29.8 25.1415 29.925 25.3415C30.5 26.3165 30.975 27.3665 31.325 28.4665C31.3667 28.5915 31.4 28.7165 31.4333 28.8499C31.5 29.0749 31.5583 29.3082 31.6083 29.5415C31.625 29.5999 31.6417 29.6582 31.6583 29.7249C31.775 30.2499 31.8583 30.7999 31.9167 31.3499C31.9167 31.3582 31.9167 31.3582 31.9167 31.3582C31.9667 31.8499 31.9917 32.3499 31.9917 32.8499Z" fill="#FF5722"/>
<path id="Vector_11" d="M30.275 32.85C30.275 33.1417 30.2583 33.4583 30.225 33.775C30.2083 33.925 30.1916 34.075 30.175 34.2167C29.9833 34.3083 29.7916 34.3917 29.5916 34.4667C29.2166 34.6083 28.8333 34.725 28.4416 34.8083C28.175 34.8667 27.9 34.9167 27.625 34.9417H27.6166C27.3583 34.7833 27.0583 34.5917 26.75 34.375C26.1916 33.9833 25.6083 33.5417 25.1416 33.1833C25.1333 33.175 25.1333 33.175 25.125 33.1667C24.6333 32.7917 24.2833 32.5083 24.2833 32.5083L23.4 32.5417L21.7 32.6L20.9083 32.6333L17.725 32.75L15.0333 32.85C14.8583 32.8583 14.65 32.8583 14.3916 32.85H14.3833C14.0333 32.8417 13.6166 32.8167 13.1583 32.775C12.625 32.7333 12.0416 32.6833 11.45 32.625C10.875 32.5583 10.2916 32.4917 9.7333 32.425C9.11663 32.3583 8.5333 32.2833 8.0333 32.2167C7.64163 32.1667 7.29997 32.125 7.02497 32.0917C6.79163 31.825 6.5833 31.55 6.3833 31.25C6.0833 30.8 5.82497 30.325 5.62497 29.8167C5.47497 29.4583 5.34997 29.0833 5.2583 28.7C5.49997 27.9583 5.81663 27.2583 6.19163 26.5833C6.49163 26.0333 6.84163 25.5083 7.22497 25.0083C7.59997 24.5167 8.0083 24.0583 8.44997 23.6417V23.6333C8.57497 23.5083 8.69997 23.3917 8.82497 23.2833C9.0583 23.0667 9.29997 22.8667 9.54997 22.675H9.5583C9.56663 22.6583 9.57497 22.6583 9.5833 22.65C9.7833 22.4917 9.99163 22.35 10.2 22.2083C11.4333 21.3667 12.825 20.7417 14.325 20.375C15.3166 20.1333 16.3583 20 17.4333 20C19.55 20 21.55 20.5083 23.3083 21.425H23.3166C24.825 22.2 26.1583 23.2667 27.2333 24.55C27.825 25.2333 28.3333 25.9833 28.75 26.775C29.0416 27.3083 29.2916 27.8667 29.5 28.4333C29.5166 28.4833 29.5333 28.525 29.55 28.5667C29.6916 28.9833 29.8166 29.4167 29.925 29.85C30 30.1583 30.0583 30.475 30.1083 30.7917C30.125 30.8917 30.1416 30.9833 30.15 31.0833C30.2333 31.6583 30.275 32.25 30.275 32.85Z" fill="#FF6F00"/>
<path id="Vector_12" d="M28.5666 32.8501V32.9335C28.5666 33.2168 28.5416 33.5751 28.5166 33.9585C28.4916 34.2418 28.4666 34.5335 28.4416 34.8085C28.175 34.8668 27.9 34.9168 27.625 34.9418H27.6166C27.3 34.9835 26.9916 35.0001 26.6666 35.0001H25.2083L24.8916 34.9085L23.25 34.4085L21.5833 33.9085L17.725 32.7501L16.0583 32.2501C16.0583 32.2501 15.3666 32.5251 14.3916 32.8501H14.3833C14.0083 32.9751 13.6 33.1085 13.1666 33.2418C12.625 33.4001 12.05 33.5585 11.4833 33.6835C10.9 33.8168 10.325 33.9168 9.8083 33.9585C9.64997 33.9751 9.49163 33.9835 9.34997 33.9835C8.8833 33.7251 8.4333 33.4168 8.02497 33.0751C7.66663 32.7751 7.3333 32.4501 7.02497 32.0918C6.79163 31.8251 6.5833 31.5501 6.3833 31.2501C6.44163 30.8751 6.5083 30.5085 6.6083 30.1501C6.8583 29.1585 7.24997 28.2085 7.76663 27.3418C8.04997 26.8501 8.36663 26.3751 8.7333 25.9335C8.74163 25.9085 8.76663 25.8835 8.79163 25.8668C8.7833 25.8585 8.79163 25.8585 8.79163 25.8585C8.89997 25.7168 9.01663 25.5835 9.1333 25.4585C9.1333 25.4501 9.1333 25.4501 9.1333 25.4501C9.47497 25.0835 9.82497 24.7335 10.2083 24.4085C10.3416 24.3001 10.4666 24.1918 10.6083 24.0835C10.6333 24.0585 10.6583 24.0418 10.6916 24.0168C12.5666 22.5835 14.9083 21.7168 17.4333 21.7168C20.3 21.7168 22.9083 22.7918 24.8833 24.5585C25.8333 25.4168 26.6416 26.4418 27.25 27.5835C27.3 27.6668 27.35 27.7585 27.3916 27.8501C27.4666 28.0001 27.5416 28.1585 27.6083 28.3251C27.8833 28.9251 28.1 29.5585 28.25 30.2085C28.2666 30.2751 28.2833 30.3418 28.3 30.4085C28.3666 30.7168 28.425 31.0335 28.4666 31.3501C28.5333 31.8418 28.5666 32.3418 28.5666 32.8501Z" fill="#FF9800"/>
<path id="Vector_13" d="M26.85 32.8498C26.85 33.0165 26.8416 33.1998 26.8333 33.3915C26.8166 33.6998 26.7916 34.0331 26.75 34.3748C26.7333 34.5831 26.7 34.7915 26.6666 34.9998H22.1L21.2166 34.8581L17.7666 34.3081L17.275 34.2331L16.15 34.0498C15.6583 34.0498 14.5916 34.2665 13.4666 34.4748C12.875 34.5831 12.275 34.6998 11.7333 34.7748C11.6666 34.7831 11.6 34.7915 11.5416 34.7998H11.5333C10.95 34.6748 10.3833 34.4831 9.84997 34.2331C9.6833 34.1581 9.51663 34.0748 9.34997 33.9831C8.8833 33.7248 8.4333 33.4165 8.02497 33.0748C8.01663 32.9748 8.0083 32.8915 8.0083 32.8498C8.0083 32.6331 8.01663 32.4248 8.0333 32.2165C8.06663 31.6831 8.14163 31.1665 8.2583 30.6665C8.44163 29.9081 8.7083 29.1748 9.06663 28.4998C9.1333 28.3581 9.2083 28.2165 9.29163 28.0831C9.32497 28.0165 9.36663 27.9581 9.39997 27.8915C9.54997 27.6498 9.71663 27.4165 9.8833 27.1831C10.2333 26.7248 10.625 26.2915 11.0416 25.8998C11.05 25.8998 11.05 25.8998 11.05 25.8998C11.0833 25.8665 11.1166 25.8331 11.15 25.8081C11.1916 25.7748 11.225 25.7331 11.2666 25.7081C11.4333 25.5581 11.6 25.4248 11.775 25.2998C11.775 25.2915 11.7833 25.2915 11.7833 25.2915C13.3583 24.1165 15.3083 23.4248 17.4333 23.4248C19.0833 23.4248 20.6166 23.8415 21.9583 24.5748H21.9666C23.1166 25.2081 24.1166 26.0665 24.9083 27.0998C25.2166 27.4998 25.4916 27.9248 25.725 28.3748H25.7333C25.775 28.4581 25.8166 28.5415 25.8583 28.6248C26.1083 29.1165 26.3083 29.6331 26.4583 30.1665H26.4666C26.475 30.2081 26.4916 30.2498 26.5 30.2915C26.6 30.6498 26.6833 31.0165 26.7416 31.3915C26.75 31.4665 26.7583 31.5498 26.7666 31.6248C26.825 32.0248 26.85 32.4331 26.85 32.8498Z" fill="#FFC107"/>
<path id="Vector_14" d="M25.1418 32.7583C25.1418 32.8916 25.1418 33.0333 25.1251 33.1666V33.1749C25.1251 33.1833 25.1251 33.1833 25.1251 33.1833C25.1084 33.7833 25.0251 34.3749 24.8918 34.9083C24.8918 34.9416 24.8834 34.9666 24.8668 34.9999H20.9751L17.7668 34.3083L17.3418 34.2166L17.2751 34.2333L13.7168 34.9666L13.5584 34.9999H13.3334C12.8001 34.9999 12.2751 34.9499 11.7668 34.8499C11.6918 34.8333 11.6168 34.8166 11.5418 34.7999H11.5334C10.9501 34.6749 10.3834 34.4833 9.8501 34.2333C9.83343 34.1416 9.81676 34.0499 9.80843 33.9583C9.7501 33.5999 9.7251 33.2249 9.7251 32.8499C9.7251 32.7083 9.7251 32.5666 9.73343 32.4249C9.75843 31.9749 9.8251 31.5333 9.9251 31.1083C9.99176 30.7916 10.0834 30.4833 10.1918 30.1916C10.2834 29.9333 10.3918 29.6833 10.5084 29.4416C10.6084 29.2333 10.7251 29.0333 10.8418 28.8333C10.9584 28.6416 11.0834 28.4583 11.2168 28.2749C11.5501 27.8166 11.9418 27.3916 12.3751 27.0166C12.6251 26.7999 12.9001 26.5916 13.1834 26.4083C14.4001 25.6083 15.8584 25.1416 17.4334 25.1416C17.7418 25.1416 18.0418 25.1583 18.3334 25.1999H18.3501C19.2418 25.2999 20.0751 25.5499 20.8418 25.9249C20.8501 25.9249 20.8501 25.9249 20.8501 25.9249C22.0584 26.5166 23.0834 27.4083 23.8334 28.5083C23.9584 28.6916 24.0834 28.8916 24.1918 29.0916C24.2834 29.2499 24.3668 29.4166 24.4418 29.5833C24.5584 29.8416 24.6668 30.1166 24.7584 30.3916H24.7668C24.8584 30.6999 24.9418 31.0083 25.0001 31.3333V31.3416C25.0918 31.7999 25.1418 32.2749 25.1418 32.7583Z" fill="#FFD54F"/>
<path id="Vector_15" d="M23.4248 32.9336V32.9586C23.4248 33.4503 23.3664 33.9336 23.2498 34.4086C23.2081 34.6086 23.1498 34.8086 23.0748 35.0003H19.3414L17.4331 34.4753L15.5248 35.0003H13.3331C12.7998 35.0003 12.2748 34.9503 11.7664 34.8503C11.7498 34.8253 11.7414 34.8003 11.7331 34.7753C11.6164 34.4169 11.5248 34.0586 11.4831 33.6836C11.4498 33.4419 11.4331 33.1919 11.4331 32.9336C11.4331 32.8336 11.4331 32.7253 11.4498 32.6253C11.4581 32.2336 11.5164 31.8503 11.6164 31.4836C11.6664 31.2336 11.7414 30.9919 11.8414 30.7586C11.8748 30.6419 11.9248 30.5336 11.9831 30.4253C12.1081 30.1419 12.2581 29.8669 12.4248 29.6003C12.6081 29.3336 12.8081 29.0836 13.0331 28.8503C13.2998 28.5503 13.5998 28.2753 13.9414 28.0503C14.5248 27.6253 15.1914 27.3086 15.9164 27.1336C16.3998 27.0003 16.9081 26.9336 17.4331 26.9336C19.0998 26.9336 20.5914 27.6003 21.6748 28.6753C21.7164 28.7169 21.7664 28.7669 21.8081 28.8253H21.8164C21.9331 28.9503 22.0414 29.0753 22.1498 29.2169C22.4581 29.6086 22.7164 30.0336 22.9164 30.5003C23.0164 30.7169 23.0998 30.9419 23.1664 31.1753C23.1748 31.2086 23.1831 31.2336 23.1914 31.2669C23.3081 31.6753 23.3831 32.1003 23.3998 32.5419C23.4164 32.6669 23.4248 32.8003 23.4248 32.9336Z" fill="#FFE082"/>
<path id="Vector_16" d="M21.7166 32.9337C21.7166 33.2754 21.6749 33.6004 21.5832 33.9087C21.4999 34.2421 21.3749 34.5587 21.2166 34.8587C21.1916 34.9087 21.1332 35.0004 21.1332 35.0004H13.7332C13.7249 34.9921 13.7166 34.9754 13.7166 34.9671C13.6166 34.8087 13.5332 34.6504 13.4666 34.4754C13.2999 34.0921 13.1999 33.6754 13.1666 33.2421C13.1499 33.1421 13.1499 33.0337 13.1499 32.9337C13.1499 32.8837 13.1499 32.8254 13.1582 32.7754C13.1666 32.4087 13.2166 32.0587 13.3166 31.7337C13.3999 31.4337 13.5082 31.1587 13.6499 30.8921C13.6499 30.8921 13.6582 30.8837 13.6582 30.8754C13.7582 30.7004 13.8666 30.5254 13.9916 30.3587C14.3999 29.8087 14.9416 29.3587 15.5666 29.0671C15.5749 29.0671 15.5749 29.0671 15.5749 29.0671C15.7749 28.9671 15.9832 28.8837 16.1999 28.8254C16.1999 28.8254 16.1999 28.8254 16.2082 28.8254C16.5916 28.7087 17.0082 28.6504 17.4332 28.6504C17.9249 28.6504 18.3999 28.7254 18.8332 28.8837C18.9916 28.9254 19.1416 28.9921 19.2916 29.0671C19.2916 29.0671 19.2916 29.0671 19.2999 29.0671C20.0166 29.4087 20.6249 29.9421 21.0416 30.6087C21.1249 30.7337 21.1999 30.8671 21.2666 31.0087C21.2999 31.0671 21.3332 31.1337 21.3582 31.1921C21.5499 31.6254 21.6666 32.1004 21.6999 32.6004C21.7082 32.6421 21.7082 32.6837 21.7082 32.7337C21.7166 32.8004 21.7166 32.8671 21.7166 32.9337Z" fill="#FFECB3"/>
<g id="Group">
<path id="Vector_17" d="M24.9998 9.16699H14.9998C11.7498 9.16699 9.1665 11.7503 9.1665 15.0003V25.0003C9.1665 28.2503 11.7498 30.8337 14.9998 30.8337H24.9998C28.2498 30.8337 30.8332 28.2503 30.8332 25.0003V15.0003C30.8332 11.7503 28.2498 9.16699 24.9998 9.16699Z" stroke="white" stroke-width="4.16667" stroke-miterlimit="10" stroke-linecap="round" stroke-linejoin="round"/>
<path id="Vector_18" d="M25.8333 14.1667C26.2936 14.1667 26.6667 13.7936 26.6667 13.3333C26.6667 12.8731 26.2936 12.5 25.8333 12.5C25.3731 12.5 25 12.8731 25 13.3333C25 13.7936 25.3731 14.1667 25.8333 14.1667Z" fill="white"/>
</g>
<g id="Group_2">
<path id="Vector_19" d="M20 25C22.7614 25 25 22.7614 25 20C25 17.2386 22.7614 15 20 15C17.2386 15 15 17.2386 15 20C15 22.7614 17.2386 25 20 25Z" stroke="white" stroke-width="4.16667" stroke-miterlimit="10" stroke-linecap="round" stroke-linejoin="round"/>
</g>
</g>
</svg>
