<svg width="40" height="40" viewBox="0 0 40 40" fill="none" xmlns="http://www.w3.org/2000/svg">
<g id="Phone">
<path id="Vector" d="M10.8333 35H29.1667C32.3883 35 35 32.3883 35 29.1667V10.8333C35 7.61167 32.3883 5 29.1667 5H10.8333C7.61167 5 5 7.61167 5 10.8333V29.1667C5 32.3883 7.61167 35 10.8333 35Z" fill="#00FF00"/>
<path id="Vector_2" d="M29.5416 25.8673L25.6983 23.3248C25.2291 23.0406 24.6425 23.0356 24.1683 23.3106C24.1683 23.3106 24.1683 23.3106 22.52 24.2714C22.2991 24.3998 22.0866 24.4239 21.915 24.3923C21.6966 24.3523 21.5466 24.2331 21.5366 24.2248C20.6308 23.5606 19.5725 22.6814 18.4441 21.5539C17.3166 20.4264 16.4375 19.3681 15.7733 18.4614C15.7658 18.4506 15.6458 18.3006 15.6058 18.0831C15.575 17.9114 15.5983 17.6998 15.7266 17.4781C16.6875 15.8298 16.6875 15.8298 16.6875 15.8298C16.9633 15.3556 16.9575 14.7681 16.6733 14.2998L14.1308 10.4564C13.8158 9.98061 13.1716 9.85477 12.7025 10.1798C12.7025 10.1798 11.4983 11.0039 11.1008 11.2839C10.4641 11.7323 10.2591 12.4139 10.2583 13.3639C10.2566 14.7006 11.4083 18.8881 16.2591 23.7389C21.1108 28.5906 25.2975 29.7414 26.6341 29.7398C27.5841 29.7389 28.2658 29.5331 28.7141 28.8973C28.9941 28.4998 29.8183 27.2956 29.8183 27.2956C30.1433 26.8264 30.0183 26.1823 29.5416 25.8673Z" fill="white"/>
</g>
</svg>
