<svg width="40" height="40" viewBox="0 0 40 40" fill="none" xmlns="http://www.w3.org/2000/svg">
<g id="WhatsApp">
<path id="Vector" fill-rule="evenodd" clip-rule="evenodd" d="M4.05664 36.0862L6.30164 27.8903C4.91664 25.492 4.18831 22.7703 4.18914 19.9828C4.19331 11.262 11.29 4.16699 20.0116 4.16699C24.2441 4.16866 28.2158 5.81616 31.2033 8.80533C34.19 11.7953 35.835 15.7687 35.8333 19.9953C35.83 28.7162 28.7316 35.812 20.0116 35.812H20.005C17.3575 35.8112 14.755 35.147 12.4441 33.8862L4.05664 36.0862Z" fill="white"/>
<path id="Vector_2" fill-rule="evenodd" clip-rule="evenodd" d="M4.05644 36.5025C3.94644 36.5025 3.83977 36.4592 3.76061 36.3792C3.65644 36.2733 3.61561 36.1192 3.65477 35.9767L5.85394 27.9467C4.49061 25.525 3.77144 22.775 3.77311 19.9833C3.77644 11.0317 11.0606 3.75 20.0114 3.75C24.3531 3.75167 28.4323 5.4425 31.4981 8.51083C34.5639 11.58 36.2514 15.6583 36.2498 19.995C36.2464 28.9458 28.9614 36.2283 20.0114 36.2283C17.3539 36.2275 14.7248 35.5717 12.3914 34.3308L4.16227 36.4883C4.12727 36.4983 4.09227 36.5025 4.05644 36.5025Z" fill="white"/>
<path id="Vector_3" fill-rule="evenodd" clip-rule="evenodd" d="M20.0118 4.16634C24.2443 4.16801 28.216 5.81551 31.2035 8.80467C34.1902 11.7947 35.8352 15.768 35.8335 19.9947C35.8302 28.7155 28.7318 35.8113 20.0118 35.8113H20.0052C17.3577 35.8105 14.7552 35.1463 12.4443 33.8855L4.05682 36.0855L6.30182 27.8897C4.91682 25.4913 4.18849 22.7697 4.18932 19.9822C4.19349 11.2613 11.2902 4.16634 20.0118 4.16634ZM20.0118 3.33301C10.8318 3.33301 3.36015 10.8013 3.35599 19.9822C3.35515 22.788 4.06349 25.553 5.40682 28.0005L3.25265 35.8663C3.17432 36.1538 3.25432 36.4605 3.46432 36.6722C3.62265 36.8322 3.83682 36.9197 4.05682 36.9197C4.12765 36.9197 4.19849 36.9105 4.26849 36.8922L12.341 34.7755C14.6977 35.9988 17.3393 36.6447 20.0052 36.6455C29.1918 36.6455 36.6635 29.1763 36.6677 19.9955C36.6693 15.5463 34.9385 11.363 31.7943 8.21634C28.6485 5.06884 24.4643 3.33467 20.0118 3.33301Z" fill="#CFD8DC"/>
<path id="Vector_4" fill-rule="evenodd" clip-rule="evenodd" d="M29.3132 10.6929C26.8299 8.20789 23.529 6.83872 20.0157 6.83789C12.7624 6.83789 6.8632 12.7346 6.85986 19.9829C6.85903 22.4671 7.55403 24.8854 8.8707 26.9796L9.18403 27.4771L7.85486 32.3279L12.8324 31.0229L13.3132 31.3079C15.3315 32.5062 17.6465 33.1396 20.0065 33.1404H20.0115C27.2599 33.1404 33.159 27.2429 33.1615 19.9937C33.1624 16.4812 31.7965 13.1779 29.3132 10.6929Z" fill="#40C351"/>
<path id="Vector_5" fill-rule="evenodd" clip-rule="evenodd" d="M16.0565 13.3712C15.7607 12.7129 15.449 12.6996 15.1665 12.6879C14.9357 12.6779 14.6724 12.6787 14.409 12.6787C14.1457 12.6787 13.7174 12.7779 13.3549 13.1737C12.9924 13.5696 11.9707 14.5254 11.9707 16.4704C11.9707 18.4154 13.3874 20.2954 13.5849 20.5587C13.7824 20.8221 16.3199 24.9412 20.3382 26.5262C23.6774 27.8429 24.3574 27.5812 25.0824 27.5154C25.8074 27.4496 27.4215 26.5596 27.7507 25.6362C28.0799 24.7129 28.0799 23.9221 27.9815 23.7571C27.8824 23.5921 27.619 23.4937 27.224 23.2954C26.829 23.0971 24.8849 22.1412 24.5224 22.0096C24.1599 21.8779 23.8965 21.8121 23.6324 22.2079C23.369 22.6029 22.6115 23.4937 22.3807 23.7571C22.1499 24.0212 21.919 24.0546 21.524 23.8562C21.129 23.6579 19.8557 23.2412 18.3449 21.8946C17.1699 20.8471 16.3765 19.5529 16.1457 19.1571C15.9149 18.7621 16.1207 18.5479 16.319 18.3504C16.4965 18.1729 16.714 17.8887 16.9124 17.6579C17.1099 17.4271 17.1757 17.2621 17.3074 16.9987C17.439 16.7346 17.3732 16.5037 17.274 16.3062C17.1765 16.1079 16.4082 14.1529 16.0565 13.3712Z" fill="white"/>
</g>
</svg>
