<svg width="32" height="37" viewBox="0 0 32 37" fill="none" xmlns="http://www.w3.org/2000/svg">
<path d="M26.5208 35.405C24.4792 37.3446 22.25 37.0383 20.1042 36.1196C17.8333 35.1804 15.75 35.1396 13.3542 36.1196C10.3542 37.3854 8.77085 37.0179 6.97918 35.405C-3.18748 25.1354 -1.68748 9.49625 9.85418 8.92458C12.6667 9.0675 14.625 10.4354 16.2708 10.5579C18.7292 10.0679 21.0833 8.65917 23.7083 8.84292C26.8542 9.08792 29.2292 10.3129 30.7917 12.5179C24.2917 16.3358 25.8333 24.7271 31.7917 27.075C30.6042 30.1375 29.0625 33.1796 26.5 35.4254L26.5208 35.405ZM16.0625 8.80208C15.75 4.24917 19.5208 0.4925 23.8542 0.125C24.4583 5.3925 18.9792 9.3125 16.0625 8.80208Z" fill="white"/>
</svg>
